<?xml version="1.0" standalone="no"?>
<!DOCTYPE svg PUBLIC "-//W3C//DTD SVG 20010904//EN"
 "http://www.w3.org/TR/2001/REC-SVG-20010904/DTD/svg10.dtd">
<svg version="1.0" xmlns="http://www.w3.org/2000/svg"
 width="209.000000pt" height="210.000000pt" viewBox="0 0 209.000000 210.000000"
 preserveAspectRatio="xMidYMid meet">

<g transform="translate(0.000000,210.000000) scale(0.100000,-0.100000)"
fill="#000000" stroke="none">
<path d="M0 1050 l0 -1050 1045 0 1045 0 0 1050 0 1050 -1045 0 -1045 0 0
-1050z m1265 592 l210 -120 0 -247 0 -248 -217 -124 -218 -123 -215 122 -215
123 0 250 0 250 213 122 c116 67 217 120 222 118 6 -1 105 -57 220 -123z
m-411 -1068 c18 -7 22 -39 6 -49 -6 -3 -19 -3 -30 0 -22 7 -27 40 -7 48 6 3
13 6 14 6 1 1 8 -2 17 -5z m-116 -20 c24 -17 31 -71 11 -91 -9 -9 -8 -16 5
-28 17 -17 20 -42 10 -70 -11 -27 -60 -45 -124 -45 l-60 0 0 125 0 125 68 0
c45 0 75 -5 90 -16z m130 -136 c-3 -92 -3 -93 -28 -93 -24 0 -25 2 -28 79 -3
95 0 106 33 106 l26 0 -3 -92z m195 75 c13 -13 17 -32 17 -95 0 -76 -1 -78
-25 -78 -23 0 -24 3 -27 68 -3 60 -5 67 -25 70 -21 3 -22 -1 -25 -65 -3 -66
-4 -68 -30 -71 l-28 -3 0 94 0 95 63 0 c42 0 68 -5 80 -15z m235 -86 c3 -92 1
-98 -22 -122 -40 -40 -148 -32 -132 10 4 13 13 15 32 11 29 -8 64 1 64 14 0 5
-13 7 -30 4 -40 -8 -90 40 -90 86 0 71 34 100 115 97 l60 -2 3 -98z m179 88
c12 -8 27 -30 33 -49 36 -109 -113 -175 -163 -73 -16 31 -17 42 -7 72 14 42
44 65 85 65 17 0 40 -7 52 -15z"/>
<path d="M840 1611 l-185 -107 0 -229 0 -230 189 -107 c103 -60 193 -108 200
-107 6 0 94 49 196 107 l185 107 0 230 0 229 -189 108 c-103 59 -193 107 -200
107 -6 -1 -94 -49 -196 -108z m398 -183 l3 -38 -45 0 c-45 0 -46 0 -46 33 0
43 6 49 50 45 33 -3 35 -5 38 -40z m-157 -5 c16 -10 29 -20 29 -23 0 -3 -11
-18 -23 -34 l-24 -29 -31 23 -31 23 20 29 c24 33 23 33 60 11z m-153 -110 c-3
-36 -5 -38 -40 -41 l-38 -3 0 40 0 41 41 0 40 0 -3 -37z m230 -22 l22 -30 -26
-20 c-34 -27 -38 -26 -64 6 l-21 27 28 22 c15 13 31 23 34 24 3 0 15 -13 27
-29z m-230 -73 l3 -38 -40 0 -41 0 0 41 0 40 38 -3 c35 -3 37 -5 40 -40z m92
2 l0 -40 -40 0 c-39 0 -40 1 -40 33 0 19 3 37 7 40 3 4 21 7 40 7 32 0 33 -1
33 -40z m-92 -97 c-3 -36 -5 -38 -40 -41 l-38 -3 0 40 0 41 41 0 40 0 -3 -37z
m92 -4 l0 -40 -37 3 c-36 3 -38 5 -41 41 l-3 37 40 0 41 0 0 -41z m98 4 c-3
-36 -5 -38 -40 -41 l-38 -3 0 40 0 41 41 0 40 0 -3 -37z"/>
<path d="M630 500 c0 -26 3 -30 29 -30 16 0 34 7 41 15 18 21 -4 45 -41 45
-26 0 -29 -4 -29 -30z"/>
<path d="M630 400 c0 -30 2 -31 38 -28 32 3 37 6 37 28 0 22 -5 25 -37 28 -36
3 -38 2 -38 -28z"/>
<path d="M1184 446 c-3 -8 -4 -27 -2 -43 2 -22 9 -29 31 -31 26 -3 27 -2 27
42 0 43 -2 46 -25 46 -14 0 -28 -6 -31 -14z"/>
<path d="M1397 453 c-9 -8 -9 -46 -1 -67 9 -24 51 -20 59 5 11 35 -3 69 -29
69 -12 0 -26 -3 -29 -7z"/>
</g>
</svg>
