<?xml version="1.0" standalone="no"?>
<!DOCTYPE svg PUBLIC "-//W3C//DTD SVG 20010904//EN"
 "http://www.w3.org/TR/2001/REC-SVG-20010904/DTD/svg10.dtd">
<svg version="1.0" xmlns="http://www.w3.org/2000/svg"
 width="353.000000pt" height="358.000000pt" viewBox="0 0 353.000000 358.000000"
 preserveAspectRatio="xMidYMid meet">
<metadata>
Created by potrace 1.16, written by Peter Selinger 2001-2019
</metadata>
<g transform="translate(0.000000,358.000000) scale(0.100000,-0.100000)"
fill="#000000" stroke="none">
<path d="M1512 2563 l-252 -146 0 -291 1 -291 248 -142 c136 -79 252 -143 257
-143 5 0 119 65 254 143 l245 142 3 291 2 291 -247 143 c-137 78 -250 144
-253 146 -3 1 -119 -63 -258 -143z m488 -35 l230 -133 -2 -269 -3 -269 -190
-109 c-104 -60 -208 -120 -230 -133 l-40 -23 -230 132 -230 133 -3 269 -2 269
227 132 c126 73 232 132 236 132 4 1 111 -59 237 -131z"/>
<path d="M1150 1115 l0 -145 60 0 c33 0 76 7 95 15 57 23 70 94 25 132 -19 17
-19 17 0 30 11 8 20 23 20 34 0 54 -45 79 -141 79 l-59 0 0 -145z"/>
<path d="M1560 1115 l0 -145 25 0 c25 0 25 0 25 95 0 52 3 95 8 95 4 -1 31
-43 61 -95 49 -84 58 -95 83 -95 l28 0 0 145 0 145 -25 0 c-25 0 -25 0 -25
-95 0 -52 -3 -95 -7 -95 -5 0 -33 43 -63 95 -48 83 -58 95 -82 95 l-28 0 0
-145z"/>
<path d="M1923 1244 c-77 -38 -85 -185 -14 -249 26 -23 112 -27 149 -7 19 11
22 21 22 72 l0 60 -50 0 c-43 0 -50 -3 -50 -20 0 -15 7 -20 25 -20 21 0 25 -5
25 -29 0 -56 -86 -49 -110 8 -15 37 -8 117 11 136 29 27 58 27 84 1 26 -26 65
-35 65 -15 0 24 -24 52 -55 65 -43 18 -62 17 -102 -2z"/>
<path d="M2235 1253 c-54 -13 -91 -84 -82 -159 9 -87 74 -137 149 -114 53 15
78 58 78 133 0 72 -21 114 -65 133 -35 14 -45 15 -80 7z m80 -63 c12 -13 15
-34 13 -80 -3 -54 -7 -66 -29 -82 -49 -37 -99 11 -99 94 0 81 67 121 115 68z"/>
</g>
</svg>
